<svg width="25" height="23" viewBox="0 0 25 23" fill="none" xmlns="http://www.w3.org/2000/svg">
<g clip-path="url(#clip0)">
<path d="M17.8717 9.43517C17.7713 9.31982 17.6261 9.25391 17.4737 9.25391H4.10248L3.72191 6.32659C3.59573 5.55772 2.93912 5 2.16048 5H0.528351C0.23687 5 0.00100708 5.23586 0.00100708 5.52734C0.00100708 5.81882 0.23687 6.05469 0.528351 6.05469H2.16048C2.42004 6.05469 2.63889 6.24059 2.67854 6.48057L3.11473 9.83015C3.11627 9.84407 3.11782 9.85743 3.12039 9.87083L4.1035 17.3707C4.13014 17.5333 4.19279 17.6803 4.26409 17.8209C3.64689 18.0367 3.20019 18.6186 3.20019 19.3086C3.20019 20.181 3.90985 20.8836 4.78222 20.8836H5.4067C5.3476 21.0494 5.30957 21.2322 5.30957 21.418C5.30957 22.2903 6.01923 23 6.8916 23C7.76396 23 8.47363 22.2903 8.47363 21.418C8.47363 21.2322 8.43559 21.0494 8.37649 20.8836H11.77C11.7109 21.0494 11.6728 21.2322 11.6728 21.418C11.6728 22.2903 12.3825 23 13.2549 23C14.1272 23 14.8369 22.2903 14.8369 21.418C14.8369 21.2322 14.7989 21.0564 14.7398 20.8906H16.4189C16.7104 20.8906 16.9463 20.6548 16.9463 20.3633C16.9463 20.0718 16.7104 19.8359 16.4189 19.8359H4.78222C4.49127 19.8359 4.25488 19.5995 4.25488 19.3086C4.25488 19.0176 4.4913 18.7812 4.83014 18.7792L8.03431 18.4877L15.6552 17.7981C16.3721 17.7332 16.9551 17.192 17.0751 16.469L17.9958 9.85437C18.017 9.70296 17.9716 9.55052 17.8717 9.43517ZM5.71231 17.6395C5.43166 17.6704 5.18859 17.4716 5.14633 17.2162L4.51922 12.418H6.40767L6.84322 17.5367L5.71231 17.6395ZM10.0908 17.2447L8.13131 17.4196H8.13117L8.10041 17.4225L7.89327 17.4413L7.46591 12.418H10.0908V17.2447ZM13.2948 16.9535L11.1456 17.1489V12.418H13.7291L13.2948 16.9535ZM16.0327 16.3093C15.9931 16.5457 15.7989 16.7259 15.56 16.7476L14.3635 16.8563L14.7884 12.418H16.5724L16.0327 16.3093Z" fill="black"/>
</g>
<circle cx="18" cy="7" r="7" fill="#F8475F"/>
<path d="M20.01 8.96C20.41 8.96 20.61 9.13 20.61 9.47C20.61 9.82333 20.41 10 20.01 10H16.63C16.2233 10 16.02 9.82333 16.02 9.47C16.02 9.13 16.2233 8.96 16.63 8.96H17.67V4.4L16.71 4.99C16.6167 5.04333 16.5333 5.07 16.46 5.07C16.32 5.07 16.2 5.01 16.1 4.89C16.0067 4.77 15.96 4.63667 15.96 4.49C15.96 4.29667 16.0467 4.14667 16.22 4.04L17.77 3.08C17.97 2.96 18.16 2.9 18.34 2.9C18.5267 2.9 18.6767 2.95667 18.79 3.07C18.9033 3.18333 18.96 3.34 18.96 3.54V8.96H20.01Z" fill="white"/>
<defs>
<clipPath id="clip0">
<rect width="18" height="18" fill="white" transform="translate(0 5)"/>
</clipPath>
</defs>
</svg>
